<svg xmlns="http://www.w3.org/2000/svg" width="512" height="512" fill="none" viewBox="0 0 512 512" id="r">
  <path fill="#DF8908" fill-rule="evenodd" d="M63.4948 176.258C56.9222 145.821 65.4654 112.776 89.1244 89.1244H89.122C112.776 65.4678 145.823 56.9246 176.26 63.4948C193.139 37.3248 222.547 20 256 20C289.453 20 318.861 37.3248 335.74 63.4924C366.177 56.9246 399.221 65.4678 422.878 89.122L345.494 166.506C339.634 159.958 332.288 154.512 323.456 150.168C310.117 143.389 294.045 140 275.24 140H167V345.002L89.1244 422.878C65.4678 399.221 56.9246 366.177 63.4948 335.74C37.3248 318.861 20 289.453 20 256C20 222.547 37.3224 193.139 63.4948 176.258ZM268.68 240.368H239.816V201.008H268.68C275.459 201.008 280.597 202.757 284.096 206.256C287.813 209.755 289.672 214.565 289.672 220.688C289.672 221.26 289.66 221.819 289.635 222.366L271.738 240.263C270.759 240.333 269.74 240.368 268.68 240.368Z" clip-rule="evenodd"></path>
  <path fill="none" d="M284.424 235.776C287.628 232.773 289.364 228.303 289.635 222.366L271.738 240.263C277.227 239.869 281.455 238.374 284.424 235.776Z"></path>
  <path fill="#DF8908" d="M448.508 176.26C455.075 145.823 446.532 112.776 422.878 89.122L345.494 166.506C348.484 169.848 351.088 173.476 353.304 177.392C360.083 188.763 363.472 201.664 363.472 216.096C363.472 231.621 359.099 245.397 350.352 257.424C341.824 269.451 329.469 278.088 313.288 283.336L363.8 372.224H283.768L240.144 288.912H239.816V372.224H167V345.002L89.1244 422.878C112.779 446.532 145.823 455.075 176.26 448.508C193.139 474.675 222.547 492 256 492C289.453 492 318.861 474.675 335.74 448.508C366.177 455.075 399.221 446.532 422.878 422.878C446.532 399.221 455.075 366.177 448.508 335.74C474.675 318.861 492 289.453 492 256C492 222.547 474.675 193.139 448.508 176.26Z"></path>
  <path fill="none" d="M240.144 288.912L283.768 372.224H363.8L313.288 283.336C329.469 278.088 341.824 269.451 350.352 257.424C359.099 245.397 363.472 231.621 363.472 216.096C363.472 201.664 360.083 188.763 353.304 177.392C351.088 173.476 348.484 169.848 345.494 166.506L289.635 222.366C289.364 228.303 287.628 232.773 284.424 235.776C281.455 238.374 277.227 239.869 271.738 240.263L167 345.002V372.224H239.816V288.912H240.144Z"></path>
</svg>
