<svg viewBox="0 0 24 24" xml:space="preserve" xmlns="http://www.w3.org/2000/svg" enable-background="new 0 0 24 24"><g id="_icons"><path d="M11.3 15.7c.1.1.2.2.3.2.1.1.3.1.4.1s.3 0 .4-.1c.1-.1.2-.1.3-.2l4-4c.4-.4.4-1 0-1.4s-1-.4-1.4 0L13 12.6V5c0-.6-.4-1-1-1s-1 .4-1 1v7.6l-2.3-2.3c-.4-.4-1-.4-1.4 0s-.4 1 0 1.4l4 4z" fill="#f7f7f7" class="fill-000000"></path><path d="M19 13c-.6 0-1 .4-1 1v2c0 1.1-.9 2-2 2H8c-1.1 0-2-.9-2-2v-2c0-.6-.4-1-1-1s-1 .4-1 1v2c0 2.2 1.8 4 4 4h8c2.2 0 4-1.8 4-4v-2c0-.6-.4-1-1-1z" fill="#f7f7f7" class="fill-000000"></path></g></svg>